# xmcd CD database file generated by OrangeCD 6.5
#
# Track frame offsets:
#	150
#	60541
#	98843
#	124743
#	150766
#	209419
#	289471
#
# Disc length: 4594 seconds
#
# Revision: 0
# Processed by: cddbd v1.5.2PL0 Copyright (c) Steve Scherf et al.
# Submitted via: OrangeCD 6.5
#
DISCID=5d11f007
DTITLE=Rory Gallagher - Blues On The Road
DYEAR=1900
DGENRE=
TTITLE0=Laundromat
TTITLE1=Handyman
TTITLE2=Too Much Alcohol
TTITLE3=Going To My Hometown
TTITLE4=Who's That Coming
TTITLE5=Bullfrog Blues
TTITLE6=Livin' Like A Trucker
EXTD=
EXTT0=
EXTT1=
EXTT2=
EXTT3=
EXTT4=
EXTT5=
EXTT6=
PLAYORDER=
